# xmcd
#
# Track frame offsets:
#        150
#        20215
#        43590
#        61875
#        78885
#        88170
#        104250
#        140370
#        163500
#        181960
#
# Disc length: 2753 seconds
#
# Revision: 10
# Processed by: cddbd v1.5PL3 Copyright (c) Steve Scherf et al.
# Submitted via: ExactAudioCopy v0.95a4
#
DISCID=7c0abf0a
DTITLE=The Amazing Bud Powell - Bud Powell
DYEAR=1958
DGENRE=Jazz
TTITLE0=Cleopatra's Dream
TTITLE1=Duid Deed
TTITLE2=Down With It
TTITLE3=Danceland
TTITLE4=Borderick
TTITLE5=Crossin' The Channel
TTITLE6=Comin' Up
TTITLE7=Gettin' There
TTITLE8=The Scene Changes
TTITLE9=Comin' Up (Alternate Take)
EXTD=DNOTES
EXTT0=
EXTT1=
EXTT2=
EXTT3=
EXTT4=
EXTT5=
EXTT6=
EXTT7=
EXTT8=
EXTT9=
PLAYORDER=
